<svg width="23" height="22" viewBox="0 0 23 22" fill="none" xmlns="http://www.w3.org/2000/svg">
<path d="M17.3774 5.23417C17.027 4.87667 16.4608 4.87667 16.1103 5.23417L11.7157 9.7075L7.32107 5.225C6.97058 4.8675 6.4044 4.8675 6.05391 5.225C5.70342 5.5825 5.70342 6.16 6.05391 6.5175L10.4485 11L6.05391 15.4825C5.70342 15.84 5.70342 16.4175 6.05391 16.775C6.4044 17.1325 6.97058 17.1325 7.32107 16.775L11.7157 12.2925L16.1103 16.775C16.4608 17.1325 17.027 17.1325 17.3774 16.775C17.7279 16.4175 17.7279 15.84 17.3774 15.4825L12.9828 11L17.3774 6.5175C17.7189 6.16917 17.7189 5.5825 17.3774 5.23417Z" fill="white"/>
</svg>
