<svg width="21" height="20" viewBox="0 0 21 20" fill="none" xmlns="http://www.w3.org/2000/svg">
<g clip-path="url(#clip0_66_89)">
<rect x="0.5" width="20" height="20" rx="2" fill="white"/>
<path d="M15.7501 4.75834C15.4251 4.43334 14.9001 4.43334 14.5751 4.75834L10.5001 8.82501L6.4251 4.75001C6.1001 4.42501 5.5751 4.42501 5.2501 4.75001C4.9251 5.07501 4.9251 5.60001 5.2501 5.92501L9.3251 10L5.2501 14.075C4.9251 14.4 4.9251 14.925 5.2501 15.25C5.5751 15.575 6.1001 15.575 6.4251 15.25L10.5001 11.175L14.5751 15.25C14.9001 15.575 15.4251 15.575 15.7501 15.25C16.0751 14.925 16.0751 14.4 15.7501 14.075L11.6751 10L15.7501 5.92501C16.0668 5.60834 16.0668 5.07501 15.7501 4.75834Z" fill="#3B4249"/>
</g>
<defs>
<clipPath id="clip0_66_89">
<rect x="0.5" width="20" height="20" rx="2" fill="white"/>
</clipPath>
</defs>
</svg>
