<svg width="15" height="16" viewBox="0 0 15 16" fill="none" xmlns="http://www.w3.org/2000/svg">
<g clip-path="url(#clip0_66_104)">
<path d="M13.2305 8.73491C13.2614 8.49491 13.2845 8.25491 13.2845 7.99991C13.2845 7.74491 13.2614 7.50491 13.2305 7.26491L14.8574 6.02741C15.0039 5.91491 15.0425 5.71241 14.9499 5.54741L13.4079 2.95241C13.3153 2.78741 13.1072 2.72741 12.9375 2.78741L11.0176 3.53741C10.6167 3.23741 10.1849 2.98991 9.71459 2.80241L9.42159 0.814909C9.39846 0.634909 9.23654 0.499908 9.04378 0.499908H5.95962C5.76686 0.499908 5.60494 0.634909 5.58181 0.814909L5.28882 2.80241C4.81848 2.98991 4.3867 3.24491 3.98576 3.53741L2.06587 2.78741C1.88853 2.71991 1.68806 2.78741 1.59554 2.95241L0.0534574 5.54741C-0.0467778 5.71241 -0.000515288 5.91491 0.145982 6.02741L1.77288 7.26491C1.74204 7.50491 1.7189 7.75241 1.7189 7.99991C1.7189 8.24741 1.74204 8.49491 1.77288 8.73491L0.145982 9.97241C-0.000515288 10.0849 -0.0390674 10.2874 0.0534574 10.4524L1.59554 13.0474C1.68806 13.2124 1.89624 13.2724 2.06587 13.2124L3.98576 12.4624C4.3867 12.7624 4.81848 13.0099 5.28882 13.1974L5.58181 15.1849C5.60494 15.3649 5.76686 15.4999 5.95962 15.4999H9.04378C9.23654 15.4999 9.39846 15.3649 9.42159 15.1849L9.71459 13.1974C10.1849 13.0099 10.6167 12.7549 11.0176 12.4624L12.9375 13.2124C13.1149 13.2799 13.3153 13.2124 13.4079 13.0474L14.9499 10.4524C15.0425 10.2874 15.0039 10.0849 14.8574 9.97241L13.2305 8.73491ZM7.5017 10.6249C6.0136 10.6249 4.80306 9.44741 4.80306 7.99991C4.80306 6.55241 6.0136 5.37491 7.5017 5.37491C8.98981 5.37491 10.2003 6.55241 10.2003 7.99991C10.2003 9.44741 8.98981 10.6249 7.5017 10.6249Z" fill="white"/>
</g>
<defs>
<clipPath id="clip0_66_104">
<rect width="15" height="15" fill="white" transform="translate(0 0.5)"/>
</clipPath>
</defs>
</svg>
